<svg xmlns="http://www.w3.org/2000/svg" viewBox="16781 1955 30.207 35.88">
  <defs>
  </defs>
  <g fill="#fff" id="Group_9565" data-name="Group 9565" transform="translate(16017.4 1542.5)">
    <path id="Path_62" data-name="Path 62" class="cls-1" d="M786,446h-7.535a.869.869,0,1,0,0,1.739H786A.869.869,0,1,0,786,446Z" transform="translate(-5.885 -12.401)"/>
    <path id="Path_63" data-name="Path 63" class="cls-1" d="M786,437h-7.535a.869.869,0,1,0,0,1.739H786A.869.869,0,1,0,786,437Z" transform="translate(-5.885 -8.617)"/>
    <path id="Path_64" data-name="Path 64" class="cls-1" d="M785.336,423.5H764.469a.891.891,0,0,0-.869.869v26.084a.891.891,0,0,0,.869.869H779.25l6.956-6.956v-20A.891.891,0,0,0,785.336,423.5Zm-6.086,25.678v-4.811h4.811Zm5.217-6.55h-6.956v6.956h-11.3a.891.891,0,0,1-.869-.869V426.108a.891.891,0,0,1,.869-.869H783.6a.891.891,0,0,1,.869.869Z" transform="translate(0 -2.943)"/>
    <path id="Path_65" data-name="Path 65" class="cls-1" d="M792.036,416.5H771.169a.891.891,0,0,0-.87.869v2.261h1.739v-.522a.891.891,0,0,1,.869-.869H790.3a.891.891,0,0,1,.869.869v22.084h1.739V417.369A.891.891,0,0,0,792.036,416.5Z" transform="translate(-2.816)"/>
    <path id="Path_66" data-name="Path 66" class="cls-1" d="M777.6,455.869a.891.891,0,0,0,.869.869h2.319V455h-2.319A.891.891,0,0,0,777.6,455.869Z" transform="translate(-5.885 -16.184)"/>
    <circle id="Ellipse_4" data-name="Ellipse 4" class="cls-1" cx="1.275" cy="1.275" r="1.275" transform="translate(767.542 427.977)"/>
    <circle id="Ellipse_5" data-name="Ellipse 5" class="cls-1" cx="1.275" cy="1.275" r="1.275" transform="translate(767.542 433.194)"/>
    <circle id="Ellipse_6" data-name="Ellipse 6" class="cls-1" cx="1.275" cy="1.275" r="1.275" transform="translate(767.542 438.41)"/>
    <path id="Path_9440" data-name="Path 9440" class="cls-1" d="M792.036,416.5H771.169a.891.891,0,0,0-.87.869v2.261h1.739v-.522a.891.891,0,0,1,.869-.869H790.3a.891.891,0,0,1,.869.869v22.084h1.739V417.369A.891.891,0,0,0,792.036,416.5Z" transform="translate(0.9 -4)"/>
  </g>
</svg>
