<svg xmlns="http://www.w3.org/2000/svg" viewBox="5088 2752 46.77 34.902">
  <defs>
    <style>
      .cls-1 {
        fill: #fff;
      }
    </style>
  </defs>
  <g id="Account_Module_Icon_white" transform="translate(3926.93 501.07)">
    <path id="Account" class="cls-1" d="M33.157,34.9h0L0,31.8V3.1L33.157,0V34.9ZM9.373,11.809h0V26.75c0,.041.04.118.078.118l14.2,1.255A.125.125,0,0,0,23.765,28V10.867l.549-.039a.486.486,0,0,0,.471-.51V8.672a.39.39,0,0,0-.082-.316.363.363,0,0,0-.28-.12.486.486,0,0,0-.069.005L8.98,9.574a.472.472,0,0,0-.353.47v1.412a.362.362,0,0,0,.353.392l.392-.039ZM35.294,34.9V0L46.77,7.561V27.34L35.295,34.9ZM37.222,3.558V31.343L45.258,26.3V8.6L37.222,3.558ZM22.9,27.064h-.039l-5.255-.47V18.985a.22.22,0,0,0-.2-.235H14.9a.22.22,0,0,0-.2.235v7.372l-4.314-.392V11.73l12.51-.823V27.063Zm-4.118-8.275a.186.186,0,0,0-.2.2v6.393a.21.21,0,0,0,.2.2l2.745.2a.186.186,0,0,0,.2-.2V18.985a.186.186,0,0,0-.2-.2Zm-7.679-.047h0c-.069,0-.124.1-.124.165v5.922a.264.264,0,0,0,.156.235l2.353.157a.179.179,0,0,0,.156-.2V18.946a.179.179,0,0,0-.156-.2H11.137Zm6.348-6.59a.092.092,0,0,0-.041.01l-2.589.157a.179.179,0,0,0-.157.2v5.137a.167.167,0,0,0,.157.156h2.589a.179.179,0,0,0,.156-.2V12.319a.208.208,0,0,0-.034-.12A.1.1,0,0,0,17.453,12.151Zm-3.923.206-2.392.118a.179.179,0,0,0-.156.2v4.98a.167.167,0,0,0,.156.156H13.53a.179.179,0,0,0,.156-.2v-5.1a.144.144,0,0,0-.156-.157Zm8-.471-2.784.157a.179.179,0,0,0-.157.2v5.333a.179.179,0,0,0,.157.2H21.53a.186.186,0,0,0,.2-.2v-5.49a.186.186,0,0,0-.2-.2Z" transform="translate(1161.07 2250.93)"/>
  </g>
</svg>
