<svg xmlns="http://www.w3.org/2000/svg" viewBox="5419 2584 28.213 30">
  <g id="Account_Notificaton_Icon_black" transform="translate(5418 2505.2)">
    <path id="Account" d="M-6311.345-2485.2a.154.154,0,0,1-.144-.144v-25.971h-.792a.68.68,0,0,1-.72-.719v-2.446a.68.68,0,0,1,.72-.719h26.835a.6.6,0,0,1,.646.719v2.446a.679.679,0,0,1-.719.719h-.792v25.971a.154.154,0,0,1-.143.144Zm14.676-14.1a.34.34,0,0,1,.36.36v12.016h8.345v-24.389h-21.726v24.389h8.273v-12.016a.34.34,0,0,1,.359-.36Zm2.374,10.792c-.215,0-.36-.144-.287-.288v-10.145a.31.31,0,0,1,.287-.287h4.461a.309.309,0,0,1,.287.287v10.145a.309.309,0,0,1-.287.288Zm-13.741,0a.31.31,0,0,1-.287-.288v-10.145a.31.31,0,0,1,.287-.287h4.461a.31.31,0,0,1,.287.287v10.145a.31.31,0,0,1-.287.288Zm13.741-12.375c-.215,0-.36-.143-.287-.287v-8.489a.31.31,0,0,1,.287-.288h4.533a.31.31,0,0,1,.289.288v8.489a.309.309,0,0,1-.289.287Zm-6.833,0a.308.308,0,0,1-.288-.287v-8.489a.31.31,0,0,1,.288-.288h4.531a.31.31,0,0,1,.289.288v8.489a.309.309,0,0,1-.289.287Zm-6.908,0a.308.308,0,0,1-.287-.287v-8.489a.31.31,0,0,1,.287-.288h4.533a.31.31,0,0,1,.289.288v8.489a.309.309,0,0,1-.289.287Z" transform="translate(6314 2594)"/>
  </g>
</svg>
