<svg xmlns="http://www.w3.org/2000/svg" viewBox="17546.998 1954 38.002 38.33">
  <defs>
  </defs>
  <path fill="#fff" id="Union_9" data-name="Union 9" class="cls-1" d="M-16511.771-1500.328a19.494,19.494,0,0,1-2.332-.929,4.762,4.762,0,0,1-6.172,0,4.652,4.652,0,0,1-.463-6.64,13.487,13.487,0,0,1-.934-2.327,4.95,4.95,0,0,1-4.311-4.309,4.814,4.814,0,0,1,4.311-5.238,18.712,18.712,0,0,1,.934-2.331,4.762,4.762,0,0,1,0-6.172,4.644,4.644,0,0,1,6.635-.464,13.789,13.789,0,0,1,2.332-.933,5.254,5.254,0,0,1,1.609-3.165,4.394,4.394,0,0,1,2.7-1.145,4.717,4.717,0,0,1,2.717.552,4.791,4.791,0,0,1,2.521,3.758,19.5,19.5,0,0,1,2.33.933,4.762,4.762,0,0,1,6.172,0,4.653,4.653,0,0,1,.465,6.636,20.22,20.22,0,0,1,.934,2.447,4.944,4.944,0,0,1,4.309,4.305,4.883,4.883,0,0,1-4.309,5.243,18.668,18.668,0,0,1-.934,2.327,4.884,4.884,0,0,1,0,6.055,4.667,4.667,0,0,1-6.637.7,13.75,13.75,0,0,1-2.33.929,4.9,4.9,0,0,1-4.77,4.425A4.765,4.765,0,0,1-16511.771-1500.328Zm2.326-1.63v1.4a2.462,2.462,0,0,0,2.447,2.447,2.462,2.462,0,0,0,2.443-2.447v-1.4a13.554,13.554,0,0,0,5.01-2.094l1.045,1.045.117.12a2.391,2.391,0,0,0,3.375-.12,2.39,2.39,0,0,0-.115-3.376l-1.047-1.045a13.552,13.552,0,0,0,2.1-5.01h1.4a2.455,2.455,0,0,0,2.443-2.443,2.458,2.458,0,0,0-2.443-2.447h-1.514a13.529,13.529,0,0,0-2.094-5.006l1.045-1.049a2.247,2.247,0,0,0,0-3.26,2.29,2.29,0,0,0-3.375-.116l-1.051.933a12.773,12.773,0,0,0-5.006-2.1v-1.4a2.457,2.457,0,0,0-2.447-2.443,2.46,2.46,0,0,0-2.441,2.443v1.4a13.568,13.568,0,0,0-5.008,2.1c-.932-.933-1.049-1.049-1.049-1.049a2.387,2.387,0,0,0-3.375.116,2.388,2.388,0,0,0,.115,3.376l1.045,1.049a12.765,12.765,0,0,0-2.094,5.006h-1.4a2.459,2.459,0,0,0-2.443,2.447,2.455,2.455,0,0,0,2.443,2.443h1.4a13.268,13.268,0,0,0,2.094,5.126l-1.045.929-.115.116a2.393,2.393,0,0,0,.115,3.38,2.394,2.394,0,0,0,3.377-.12l1.049-1.045A12.778,12.778,0,0,0-16509.445-1501.958Zm-4.555-13.164a6.887,6.887,0,0,1,6.881-6.877,6.887,6.887,0,0,1,6.881,6.877,6.891,6.891,0,0,1-6.881,6.885A6.891,6.891,0,0,1-16514-1515.123Zm2.219-.008a4.662,4.662,0,0,0,4.658,4.654,4.66,4.66,0,0,0,4.65-4.654,4.663,4.663,0,0,0-4.65-4.653A4.664,4.664,0,0,0-16511.781-1515.131Z" transform="translate(34073 3488)"/>
</svg>
