<svg xmlns="http://www.w3.org/2000/svg" viewBox="17107 1952 37.984 42.508">
  <defs>
  </defs>
  <g fill="#fff" id="noun_150886_cc_1_" transform="translate(34212.883 3903.008)">
    <g id="Group_206_1_" transform="translate(1.14 1)">
      <path id="Path_395_1_" class="cls-1" d="M-17076.2-1933.9C-17075.8-1934.4-17077-1934.3-17076.2-1933.9Zm-3.3-4.3C-17079.8-1936.6-17079.3-1939.9-17079.5-1938.2Zm6.4,12.2c2.3-3.1,5.2-7,3.6-14.5a13.014,13.014,0,0,0-6.7-9.1,20.436,20.436,0,0,0-10.2-2.4,22.227,22.227,0,0,0-5.7.7,15.7,15.7,0,0,0-9.7,7.6,11.314,11.314,0,0,0-1.3,8.6.663.663,0,0,1-.1.6c-.2.3-.6.8-.9,1.3a26.127,26.127,0,0,0-2.8,4.5,1.931,1.931,0,0,0,1.2,2.5c.1,0,.1,0,.2.1a9.284,9.284,0,0,1,.9.3,3.977,3.977,0,0,0,.6.2c.7.2.7,3.2.6,4.9v1.4c0,2.3,1.5,3.7,4,3.7a11.055,11.055,0,0,0,1.8-.2,3.085,3.085,0,0,1,1-.1c1.2,0,1.7.5,1.7,1.9v1.1a2.652,2.652,0,0,0,1.6,2.2,24.176,24.176,0,0,0,7.6,1.2h0a29.613,29.613,0,0,0,10.2-1.8,1.754,1.754,0,0,0,1.1-2.2c0-.1-.1-.1-.1-.2a10.318,10.318,0,0,1-1-7.7,11.327,11.327,0,0,1,2.4-4.6Zm-3.2,12.9a27.983,27.983,0,0,1-9.5,1.7,20.924,20.924,0,0,1-7-1.1c-.3-.1-.4-.3-.5-.6v-1c0-2.3-1.3-3.7-3.5-3.7a6.758,6.758,0,0,0-1.4.2c-.5.1-.9.1-1.4.2-1.9,0-2.2-.9-2.2-1.9v-1.3c0-3.1.1-6-1.9-6.6a1.686,1.686,0,0,1-.5-.2c-.7-.3-.9-.3-1.1-.4a.1.1,0,0,1-.1-.1v-.1a21.82,21.82,0,0,1,2.6-4.1c.4-.6.7-1,1-1.4a2.582,2.582,0,0,0,.3-2.1,9.63,9.63,0,0,1,1.1-7.2,14.393,14.393,0,0,1,8.6-6.7,22.41,22.41,0,0,1,5.2-.6c3.1,0,13.2.7,15.1,10.1,1.4,6.8-1,10-3.3,13.1a16.093,16.093,0,0,0-2.9,5.1,13.3,13.3,0,0,0,1.4,8.7Z"/>
      <g id="Group_9526_1_" transform="translate(12.053 7.204) rotate(-15.009)">
        <g id="Group_9678" data-name="Group 9678">
          <g id="Group_9529_1_">
            <path id="Exclusion_1_1_" class="cls-1" d="M-16006.9-6296.5a3.741,3.741,0,0,1-1.1-.1,2.756,2.756,0,0,0-2.8-2.6,2.409,2.409,0,0,0-1.8.7,10.6,10.6,0,0,1-1.5-1.5,3.289,3.289,0,0,0,.7-1.6,3.229,3.229,0,0,0-.6-2.1,2.969,2.969,0,0,0-1.9-1,7.417,7.417,0,0,1,0-2.1,2.357,2.357,0,0,0,1.6-.7,2.755,2.755,0,0,0,.3-4,6.745,6.745,0,0,1,1.5-1.4,3.289,3.289,0,0,0,1.6.7h.2a2.756,2.756,0,0,0,2.8-2.6h.9a3.741,3.741,0,0,1,1.1.1,2.358,2.358,0,0,0,.7,1.6,2.865,2.865,0,0,0,2.2,1,2.409,2.409,0,0,0,1.8-.7,6.736,6.736,0,0,1,1.4,1.5,2.931,2.931,0,0,0,.2,4,3.289,3.289,0,0,0,1.6.7v2.1a2.742,2.742,0,0,0-2.6,3,2.358,2.358,0,0,0,.7,1.6,6.745,6.745,0,0,1-1.5,1.4,3.289,3.289,0,0,0-1.6-.7h-.3a2.756,2.756,0,0,0-2.8,2.6C-16006.2-6296.5-16006.5-6296.5-16006.9-6296.5Zm.1-14.9a5.723,5.723,0,0,0-5.7,5,5.776,5.776,0,0,0,4.9,6.6,5.9,5.9,0,0,0,6.4-5.2,5.751,5.751,0,0,0-4.7-6.3A2.771,2.771,0,0,0-16006.8-6311.4Z"/>
            <g id="Group_9528_1_" transform="translate(5.713 5.713)">
              <path id="Path_9424_1_" class="cls-1" d="M-16009.8-6310.2a2.786,2.786,0,0,1-3.8,1.5,2.816,2.816,0,0,1-1.5-3.8,2.786,2.786,0,0,1,3.8-1.5h0a2.931,2.931,0,0,1,1.5,3.8"/>
            </g>
          </g>
        </g>
      </g>
      <g id="Group_9527_1_" transform="translate(5.403 22.892) rotate(-45)">
        <g id="Group_9679" data-name="Group 9679">
          <g id="Group_9529-2_1_">
            <path id="Exclusion_1-2_1_" class="cls-1" d="M-10711.3-13466.9h-.6a1.537,1.537,0,0,0-1.6-1.4,1.221,1.221,0,0,0-.9.4,3.054,3.054,0,0,1-.8-.8,1.889,1.889,0,0,0,.4-.9,2.011,2.011,0,0,0-.3-1.1,1.388,1.388,0,0,0-1-.5v-1.1a1.221,1.221,0,0,0,.9-.4,1.55,1.55,0,0,0,.2-2.1,3.054,3.054,0,0,1,.8-.8,1.889,1.889,0,0,0,.9.4h.1a1.453,1.453,0,0,0,1.5-1.4h1.1a1.221,1.221,0,0,0,.4.9,1.657,1.657,0,0,0,1.2.5,1.281,1.281,0,0,0,1-.4,3.054,3.054,0,0,1,.8.8,1.45,1.45,0,0,0,.1,2.1,2.475,2.475,0,0,0,.9.4v1.1a1.537,1.537,0,0,0-1.4,1.6,1.221,1.221,0,0,0,.4.9,3.054,3.054,0,0,1-.8.8,1.889,1.889,0,0,0-.9-.4h-.1a1.519,1.519,0,0,0-1.5,1.4Zm.1-8a3.119,3.119,0,0,0-3.1,2.7,3.072,3.072,0,0,0,2.6,3.5,3.006,3.006,0,0,0,3.4-2.8,3.088,3.088,0,0,0-2.6-3.4Z"/>
            <g id="Group_9528-2_1_" transform="translate(3.429 3.429)">
              <path id="Path_9424-2_1_" class="cls-1" d="M-10713.1-13475a1.523,1.523,0,0,1-1.8,1.3,1.523,1.523,0,0,1-1.3-1.8,1.524,1.524,0,0,1,1.8-1.3h0a1.723,1.723,0,0,1,1.3,1.8h0"/>
            </g>
          </g>
        </g>
      </g>
    </g>
  </g>
</svg>
