<svg xmlns="http://www.w3.org/2000/svg" viewBox="0 0 32 32">
    <title>Billing</title>
    <g id="Billing">
        <path id="Billing-2" data-name="Billing" d="M26.51,9.35v2.16l3.66,2.3v0L16,22,1.83,13.85v0l3.66-2.3V9.35L0,12.8V29.26A2.74,2.74,0,0,0,2.74,32H29.26A2.74,2.74,0,0,0,32,29.26V12.8ZM9.64,20.42,1.83,27.58V16Zm-6.9,9.75a.91.91,0,0,1-.37-.08L2.27,30a.67.67,0,0,1-.19-.14h0s0,0,0,0l9.18-8.42,3.87,2.13.89.51.89-.51,3.87-2.13,9.18,8.42,0,0h0a.67.67,0,0,1-.19.14l-.1.07a.91.91,0,0,1-.37.08Zm27.43-2.59-7.81-7.16L30.17,16ZM7.31,17V1.83H20.1V6.36l1.79,0,2.78,0V17l1.82-1V4.66L24.23,2.29,21.92,0H5.49V15.94ZM22.91,3.55l1,1.06-2,0v-2ZM16.68,18.74h-1.2V17.52a4.88,4.88,0,0,1-3.21-1.66l-.13-.15.88-1,.17.21a3.87,3.87,0,0,0,2.29,1.31V12.35c-1.52-.42-3-1-3-2.84a3,3,0,0,1,3-2.88V5.26h1.2V6.62a4.61,4.61,0,0,1,3,1.47l.14.15-.89,1L18.78,9a3.44,3.44,0,0,0-2.1-1.15v3.4c1.45.41,3.31,1,3.31,3.16,0,1.31-.87,2.88-3.31,3.07Zm0-6.07v3.55c1.42-.17,1.93-1,1.93-1.77C18.61,13.45,17.88,13,16.68,12.67Zm-1.2-4.76a1.71,1.71,0,0,0-1.58,1.6c0,.74.57,1.1,1.58,1.43Z" fill="#fff"/>
    </g>
</svg>