<svg xmlns="http://www.w3.org/2000/svg" viewBox="5241 2786 30 22.5">
  <defs>
    <style>
      .cls-1 {
        fill: #236094;
      }
    </style>
  </defs>
  <g id="Billing_Notificaton_Icon_blue" transform="translate(5241 2786)">
    <path id="Billing" class="cls-1" d="M-6312.791-2773.5a.184.184,0,0,1-.209-.208v-22.083a.185.185,0,0,1,.209-.209h29.583a.184.184,0,0,1,.208.209v22.083a.183.183,0,0,1-.208.208Zm2.014-2.291h25.556v-17.986h-25.556Zm6.041-3.194v-1.042a6.054,6.054,0,0,1-3.4-1.527l.971-1.18a5.641,5.641,0,0,0,2.43,1.18v-2.708a5.058,5.058,0,0,1-2.291-.973,2.169,2.169,0,0,1-.7-1.806,2.526,2.526,0,0,1,.833-1.944,3.756,3.756,0,0,1,2.223-.833v-.694h.833v.694a5.717,5.717,0,0,1,2.917,1.042l-.9,1.25a3.907,3.907,0,0,0-2.014-.833v2.638h.069a5.809,5.809,0,0,1,2.361,1.042,2.118,2.118,0,0,1,.7,1.874,2.519,2.519,0,0,1-.835,1.944,3.774,3.774,0,0,1-2.291.833v1.042Zm.973-2.5a2.359,2.359,0,0,0,1.041-.417.994.994,0,0,0,.347-.764.945.945,0,0,0-.277-.764,2.332,2.332,0,0,0-1.111-.556Zm-1.875-6.458a1.112,1.112,0,0,0-.347.764.947.947,0,0,0,.279.763,2.881,2.881,0,0,0,1.041.487v-2.362A1.372,1.372,0,0,0-6305.639-2787.944Zm8.126,8.262a.548.548,0,0,1-.556-.554v-1.042a.547.547,0,0,1,.556-.554h7.847a.494.494,0,0,1,.485.554v1.042a.547.547,0,0,1-.555.554Zm0-3.958a.548.548,0,0,1-.556-.556v-1.041a.548.548,0,0,1,.556-.556h7.847a.5.5,0,0,1,.485.556v1.041a.547.547,0,0,1-.555.556Zm0-4.028a.549.549,0,0,1-.556-.556v-1.041a.548.548,0,0,1,.556-.556h7.847a.536.536,0,0,1,.485.556v1.041a.548.548,0,0,1-.555.556Z" transform="translate(6313 2796)"/>
  </g>
</svg>
