<?xml version="1.0" encoding="utf-8"?>
<!-- Generator: Adobe Illustrator 22.0.1, SVG Export Plug-In . SVG Version: 6.00 Build 0)  -->
<svg version="1.1" id="Layer_1" xmlns="http://www.w3.org/2000/svg" xmlns:xlink="http://www.w3.org/1999/xlink" x="0px" y="0px"
	 viewBox="0 0 32 32" style="enable-background:new 0 0 32 32;" xml:space="preserve">
<style type="text/css">
	.st0{fill:#FFFFFF;}
</style>
<title>Compliance</title>
<path class="st0" d="M29,22h-8.6c-0.2-1.4-0.3-2.9-0.4-4.2c0-2.4,1.8-5.2,1.8-5.2c0,0,0,0,0,0c0,0,0,0,0,0C21.9,12.4,24,9,24,6
	c0-5.2-2.2-6-3.5-6h-9C9.7,0,7.8,1.6,7.8,6c0,3,2.3,6.4,2.4,6.6c0.1,0.1,1.8,2.8,1.8,5.2c0,1.4-0.2,2.9-0.4,4.3H3c-0.6,0-1,0.4-1,1
	v6c0,0.6,0.4,1,1,1h1c-0.6,0-1,0.4-1,1s0.4,1,1,1h24c0.6,0,1-0.4,1-1s-0.4-1-1-1h1c0.6,0,1-0.4,1-1v-6C30,22.4,29.6,22,29,22z
	 M11.5,2h9C21.9,2,22,4.8,22,6c0,1.9-1.1,4-1.6,5h-8.9c-0.7-1.1-1.8-3.3-1.8-5C9.8,4,10.3,2,11.5,2z M12.7,13h6.6
	c-0.6,1.2-1.3,3-1.3,4.8c0,1.4,0.2,2.8,0.3,4.2h-4.7c0.2-1.4,0.3-2.8,0.3-4.2C14,16,13.3,14.2,12.7,13z M28,28H4v-4h8.5h7H28V28z"/>
</svg>
