<svg xmlns="http://www.w3.org/2000/svg" viewBox="5174 2685 29.999 29.268">
  <defs>
    <style>
      .cls-1 {
        fill: #fff;
      }
    </style>
  </defs>
  <g id="Electronic-Transfer_Notificaton_Icon_white" transform="translate(11766.7 2508.439)">
    <path id="Electronic-Transfer" class="cls-1" d="M-12891.97-2489.441l-4.684-4.761a.915.915,0,0,1,0-1.347l4.684-4.683a.909.909,0,0,1,1.348,0,.909.909,0,0,1,0,1.347l-3.094,3.1h12.063c2.384,0,4.052-1.824,4.052-4.444v-7.223c0-2.857-1.114-4.366-3.5-4.366a1.035,1.035,0,0,1-.952-1.03.9.9,0,0,1,.952-.875c3.809,0,5.4,2.779,5.4,6.271v7.223c0,3.65-2.536,6.348-5.953,6.348h-12.062l3.094,3.1a1.065,1.065,0,0,1,0,1.347,1.16,1.16,0,0,1-.713.269A.882.882,0,0,1-12891.97-2489.441Zm-13.729-10.714v-7.219c0-3.654,2.539-6.352,5.953-6.352h12.062l-3.093-3.093a1.077,1.077,0,0,1,0-1.351.984.984,0,0,1,1.351,0l4.68,4.761a.913.913,0,0,1,0,1.351l-4.68,4.683a.917.917,0,0,1-1.351,0,.912.912,0,0,1,0-1.351l3.093-3.1h-12.062c-2.381,0-4.049,1.827-4.049,4.447v7.219c0,2.779,1.111,4.366,3.491,4.366a.983.983,0,0,1,.952,1.033.9.9,0,0,1-.952.871C-12904.112-2493.885-12905.7-2496.66-12905.7-2500.155Z" transform="translate(6313 2695)"/>
  </g>
</svg>
