<svg xmlns="http://www.w3.org/2000/svg" viewBox="5088 2863 46.77 34.902">
  <defs>
    <style>
      .cls-1 {
        fill: #fff;
      }
    </style>
  </defs>
  <g id="Employees_Module_Icon_white" transform="translate(2257 611)">
    <path id="Employees" class="cls-1" d="M33.157,34.9h0L0,31.8V3.1L33.157,0V34.9ZM12.951,18.871l-.12.1A7.192,7.192,0,0,0,9.883,24.1v.311a21.275,21.275,0,0,0-.178,3.159l12.361,1.087a26.8,26.8,0,0,0-.222-3.574,1.018,1.018,0,0,0-.044-.362,7.739,7.739,0,0,0-3.384-5.639l-.261-.213a3.419,3.419,0,0,1-1.023.311,1.432,1.432,0,0,1-.445.1,1.312,1.312,0,0,1-.445.052,3.948,3.948,0,0,1-.756.052,3.727,3.727,0,0,1-.756-.052,1.056,1.056,0,0,1-.2-.026,1.062,1.062,0,0,0-.2-.026,1.159,1.159,0,0,0-.223-.052,1.169,1.169,0,0,1-.222-.051l-.409-.136Zm6.536-1.554c-.06.069-.119.144-.178.219a3.184,3.184,0,0,1-.356.4l.178.155A8.777,8.777,0,0,1,23,24.516c.022.1.033.194.045.285s.022.181.044.284l3.6.207a14.683,14.683,0,0,0-.222-3.314,6.514,6.514,0,0,0-3.117-4.893l-.173-.13a6.6,6.6,0,0,1-1.334.414,8,8,0,0,1-1.111.1,7.471,7.471,0,0,1-1.067-.1.308.308,0,0,1-.089-.026A.3.3,0,0,0,19.487,17.317Zm-10.627,0-.146.136A5.774,5.774,0,0,0,6.5,21.564a13.971,13.971,0,0,0-.178,2.693l2.579.155a2.255,2.255,0,0,1,.022-.259,2.243,2.243,0,0,0,.022-.26A8.159,8.159,0,0,1,12.2,18.146l.089-.052a2.625,2.625,0,0,1-.445-.57.145.145,0,0,0-.067.026.144.144,0,0,1-.067.026,5.768,5.768,0,0,1-.889.1,5.155,5.155,0,0,1-.889-.052A4.171,4.171,0,0,1,8.861,17.317Zm7-6.643q-.161,0-.326.014a3.709,3.709,0,0,0-2.757,1.657,4.372,4.372,0,0,0-.756,2.382,3.737,3.737,0,0,0,.133.984,3.524,3.524,0,0,0,3.379,2.641,3.891,3.891,0,0,0,3.6-2.848,4.66,4.66,0,0,0,.178-1.139,3.881,3.881,0,0,0-.845-2.434A3.258,3.258,0,0,0,15.857,10.674Zm-4.864.056q-.11,0-.22.01a2.733,2.733,0,0,0-2.09,1.243A3.538,3.538,0,0,0,8.1,13.9a5.106,5.106,0,0,0,.089.829A2.723,2.723,0,0,0,10.772,16.8a2.152,2.152,0,0,0,.526-.08l.1-.023c-.045-.1-.078-.207-.111-.311s-.067-.207-.111-.311a4.645,4.645,0,0,1-.178-1.346,5.641,5.641,0,0,1,.934-3.056,2.3,2.3,0,0,1,.445-.518A2.43,2.43,0,0,0,10.992,10.73ZM20.911,9.8q-.089,0-.179,0a3.614,3.614,0,0,0-1.912.777,1.983,1.983,0,0,1,.332.312,2.514,2.514,0,0,0,.2.206,5.109,5.109,0,0,1,1.112,3.159,5.553,5.553,0,0,1-.222,1.5c-.033.076-.059.159-.087.244a1.8,1.8,0,0,1-.18.43,2.29,2.29,0,0,0,.523.073,1.219,1.219,0,0,0,.233-.021,3.579,3.579,0,0,0,3.29-2.538,3.737,3.737,0,0,0,.133-.984A3.177,3.177,0,0,0,23.4,10.9,3.256,3.256,0,0,0,20.911,9.8ZM35.294,34.9h0V0L46.77,7.562V27.341L35.295,34.9ZM37.222,3.558V31.344L45.258,26.3V8.6L37.222,3.558Z" transform="translate(2831 2252)"/>
  </g>
</svg>
