<svg id="Layer_1" data-name="Layer 1" xmlns="http://www.w3.org/2000/svg" viewBox="0 0 733.97 83.65"><defs><style>.cls-1{fill:#00a0c6;}.cls-2{fill:#fff;}.cls-3{fill:#c5de51;}.cls-4{fill:#999;}</style></defs><title>logo-360</title><path class="cls-1" d="M700.2,7.77a41.45,41.45,0,1,0,41.45,41.45A41.45,41.45,0,0,0,700.2,7.77Zm0,78.18a36.73,36.73,0,1,1,36.73-36.73A36.73,36.73,0,0,1,700.2,86Z" transform="translate(-7.73 -7.02)"/><circle class="cls-2" cx="722.68" cy="16.98" r="11.29"/><circle class="cls-2" cx="722.68" cy="16.98" r="5.55"/><path class="cls-1" d="M593.77,66.78q0,11.24-7.28,17.43t-20,6.19a32.75,32.75,0,0,1-6.65-.69,38.24,38.24,0,0,1-6.36-1.89A34.93,34.93,0,0,1,547.84,85a23.91,23.91,0,0,1-4.3-3.33l3.1-3.78a31,31,0,0,0,9.06,5.56,28.49,28.49,0,0,0,11,2.24q10.78,0,16.34-4.93t5.56-13.88a19.61,19.61,0,0,0-1.49-8,14.16,14.16,0,0,0-4.3-5.56,18.54,18.54,0,0,0-6.71-3.21,33.11,33.11,0,0,0-8.49-1h-5.16V44.64h5.28q8.71,0,13.19-4.36T585.4,28.7q0-7.34-4.42-11.87t-14-4.53a24.78,24.78,0,0,0-10.38,2.06,27.38,27.38,0,0,0-7.05,4.36l-3.21-3.33a22.56,22.56,0,0,1,3.44-2.75,26.48,26.48,0,0,1,4.76-2.47,39.91,39.91,0,0,1,5.91-1.83,29.88,29.88,0,0,1,6.77-.75,32.79,32.79,0,0,1,9.52,1.32,20.79,20.79,0,0,1,7.44,3.9,17.32,17.32,0,0,1,4.76,6.42,22.29,22.29,0,0,1,1.68,9A21.38,21.38,0,0,1,589.3,36a17.71,17.71,0,0,1-3.21,5.39,14.93,14.93,0,0,1-4.47,3.44,18.92,18.92,0,0,1-4.93,1.72,24.41,24.41,0,0,1,6.14,1.78,17.53,17.53,0,0,1,5.45,3.73,18.82,18.82,0,0,1,4,6.08A22,22,0,0,1,593.77,66.78Z" transform="translate(-7.73 -7.02)"/><path class="cls-1" d="M655.4,64.71a26.1,26.1,0,0,1-2.12,10.72,23.17,23.17,0,0,1-5.89,8.09,26.33,26.33,0,0,1-8.93,5.1,34.19,34.19,0,0,1-11.22,1.78,35.06,35.06,0,0,1-11.39-1.78,23,23,0,0,1-9-5.56A25.25,25.25,0,0,1,601,73.43a42.27,42.27,0,0,1-2.06-14,65.3,65.3,0,0,1,1-11.07A58.45,58.45,0,0,1,603,37.19a50.27,50.27,0,0,1,5.56-10.49,41.55,41.55,0,0,1,8.31-8.89,45.85,45.85,0,0,1,11.3-6.54A51.76,51.76,0,0,1,642.9,7.83v4.7a46.15,46.15,0,0,0-16.17,4.82,39.46,39.46,0,0,0-11.58,9.18A41.92,41.92,0,0,0,607.8,39a61.42,61.42,0,0,0-3.56,14.51A21.4,21.4,0,0,1,613.17,44q6.29-3.73,15.68-3.73a35,35,0,0,1,10.41,1.49,23.87,23.87,0,0,1,8.41,4.53,21.14,21.14,0,0,1,5.66,7.63A26.14,26.14,0,0,1,655.4,64.71Zm-5.16.23q0-9.86-6.14-14.91t-16.46-5a28.76,28.76,0,0,0-9.46,1.49,22.22,22.22,0,0,0-7.4,4.19,18.34,18.34,0,0,0-6.42,14.16q.46,9.75,6.59,15.31t16.57,5.56A26.71,26.71,0,0,0,637,84.09a21.32,21.32,0,0,0,7.17-4.36,18.46,18.46,0,0,0,4.47-6.54A21.6,21.6,0,0,0,650.24,64.94Z" transform="translate(-7.73 -7.02)"/><circle class="cls-3" cx="722.68" cy="16.98" r="8.51"/><circle class="cls-2" cx="722.68" cy="16.98" r="4.19"/><path class="cls-4" d="M51.41,83.29q-6.51,7.1-19.17,7.09-9.5,0-15.48-4.28t-9-12.72l4.92-2.11A25.75,25.75,0,0,0,20,81.89q4.57,3.69,12.43,3.69,10.08,0,15.12-5.87t5-18.55V7h5.28V61.19Q57.92,76.2,51.41,83.29Z" transform="translate(-7.73 -7.02)"/><path class="cls-4" d="M83,85.34a4.21,4.21,0,0,1-1.35,3.17,4.37,4.37,0,0,1-3.11,1.29,4.4,4.4,0,0,1-4.46-4.46,4.71,4.71,0,0,1,1.29-3.28,4.13,4.13,0,0,1,3.17-1.41,4.19,4.19,0,0,1,3.11,1.41A4.6,4.6,0,0,1,83,85.34Z" transform="translate(-7.73 -7.02)"/><path class="cls-4" d="M155,65.29q0,11.84-6.9,17.82t-19.42,6H102.24V7h26.38a31.27,31.27,0,0,1,8.44,1.11,19.83,19.83,0,0,1,7,3.46,16.6,16.6,0,0,1,4.75,6,20.44,20.44,0,0,1,1.76,8.85,20.66,20.66,0,0,1-1.12,7.15,17.32,17.32,0,0,1-3,5.28,15,15,0,0,1-4.25,3.52,18.93,18.93,0,0,1-5,1.88,24.43,24.43,0,0,1,6.2,1.88,19,19,0,0,1,5.73,4,20.44,20.44,0,0,1,4.21,6.33A21.84,21.84,0,0,1,155,65.29Zm-9.85-38.63q0-7.53-4.75-11.18t-12-3.65H107.51V42.31h20.64q8.09,0,12.55-4.18T145.15,26.66Zm4.57,38.93a18.63,18.63,0,0,0-1.58-7.82,16.29,16.29,0,0,0-4.4-5.82,19.59,19.59,0,0,0-6.68-3.59,28.07,28.07,0,0,0-8.56-1.23h-21V84.29h21.57q10.32,0,15.48-4.94T149.72,65.59Z" transform="translate(-7.73 -7.02)"/><path class="cls-4" d="M178,85.34a4.21,4.21,0,0,1-1.35,3.17,4.37,4.37,0,0,1-3.11,1.29,4.4,4.4,0,0,1-4.46-4.46,4.71,4.71,0,0,1,1.29-3.28,4.13,4.13,0,0,1,3.17-1.41,4.19,4.19,0,0,1,3.11,1.41A4.6,4.6,0,0,1,178,85.34Z" transform="translate(-7.73 -7.02)"/><path class="cls-4" d="M277.75,89.1V48.76H231.91V89.1h-5.28V7h5.28V44h45.84V7H283V89.1Z" transform="translate(-7.73 -7.02)"/><path class="cls-4" d="M333.5,90.39q-14,0-21.24-8.09t-7.2-24.74V7h5.28V57.51q0,14.33,5.82,21.2t17.57,6.87q11.76,0,17.28-6.81t5.53-21.14V7h5.28V57.44Q361.82,90.39,333.5,90.39Z" transform="translate(-7.73 -7.02)"/><path class="cls-4" d="M435.2,89.1,389.14,16.29V89.1h-5.28V7h5.28l45.61,72.34V7H440V89.1Z" transform="translate(-7.73 -7.02)"/><path class="cls-4" d="M487.39,11.83V89.1h-5.28V11.83H456.67V7h56.16v4.81Z" transform="translate(-7.73 -7.02)"/></svg>