<svg xmlns="http://www.w3.org/2000/svg" viewBox="17004 1957.92 24.096 30.94">
  <defs>
  </defs>
  <g fill="#fff" id="Path_9441_1_" transform="translate(17004 1957.92)">
    <path id="Path_9467" data-name="Path 9467" class="cls-1" d="M12.047,2.054A10.286,10.286,0,0,1,22.178,12.184c0,3.97-5.476,11.089-10.131,16.018C7.393,23.273,1.917,16.155,1.917,12.184A10.286,10.286,0,0,1,12.047,2.054m0,15.333h0a6.093,6.093,0,0,0,0-12.184,5.989,5.989,0,0,0-6.024,6.024,6.107,6.107,0,0,0,6.024,6.161M12.047,0A11.978,11.978,0,0,0,0,12.047c0,6.161,9.72,16.291,10.678,17.524l1.369,1.369,1.369-1.369c1.1-1.1,10.678-11.226,10.678-17.524A11.978,11.978,0,0,0,12.047,0Zm0,15.47A4.034,4.034,0,0,1,7.94,11.363a4.034,4.034,0,0,1,4.107-4.107,4.034,4.034,0,0,1,4.107,4.107,4.119,4.119,0,0,1-4.107,4.107Z"/>
  </g>
</svg>
