<svg xmlns="http://www.w3.org/2000/svg" viewBox="5088 2532 46.77 34.902">
  <defs>
    <style>
      .cls-1 {
        fill: #fff;
      }
    </style>
  </defs>
  <g id="Order_Module_Icon_white" transform="translate(4915 280)">
    <path id="Order" class="cls-1" d="M35.294,34.9h0V0L46.77,7.562V27.34L35.295,34.9ZM37.222,3.558V31.344L45.258,26.3V8.6L37.222,3.558ZM33.157,34.9,0,31.8V3.1L33.157,0V34.9h0ZM16.735,7.843c-.228,0-.437.009-.62.028a15.239,15.239,0,0,0-3.264.843v.871L9.913,9.8c-.053,0-.109.08-.109.135V26.013a.182.182,0,0,0,.109.136l13.3,1.224a.124.124,0,0,0,.135-.109V8.9a.129.129,0,0,0-.135-.137l-3.618.3V8.143A17.841,17.841,0,0,0,16.735,7.843ZM22.18,26.12,10.7,25.17V10.781l2.176-.136v.326l6.718-.462v-.326l2.584-.163v16.1h0Zm-8.051-4.1v1.142l6.255.354v-1.2l-6.255-.3Zm-1.375-.165a.6.6,0,0,0-.557.627.682.682,0,0,0,.6.68l.041,0a.6.6,0,0,0,.558-.628.682.682,0,0,0-.6-.679l-.042,0Zm1.375-4v1.115l6.255.11v-1.2l-6.255-.028ZM12.8,17.744a.655.655,0,0,0,0,1.305.655.655,0,0,0,0-1.305Zm.044-4.11-.044,0a.644.644,0,0,0-.6.68.6.6,0,0,0,.557.628l.042,0a.644.644,0,0,0,.6-.681.581.581,0,0,0-.554-.627Zm7.544-.189-6.256.245v1.115l6.255-.163v-1.2h0Z" transform="translate(173 2252)"/>
  </g>
</svg>
