<svg xmlns="http://www.w3.org/2000/svg" viewBox="16557 1954 38 38.002">
  <defs>
  </defs>
  <g  fill="#fff"  id="Group_9545" data-name="Group 9545" transform="translate(16557 1287.766)">
    <path id="Union_6" data-name="Union 6" class="cls-1" d="M17.475,37.961a1.925,1.925,0,0,1-.971-.525L.568,21.519a1.943,1.943,0,0,1,0-2.744L18.756.564A1.913,1.913,0,0,1,20.462.032L34.536,1.461l.051.011a2.512,2.512,0,0,1,1.923,1.92l.017.1,1.44,14.02a1.911,1.911,0,0,1-.531,1.707L19.248,37.433a1.946,1.946,0,0,1-1.773.528ZM1.891,20.1a.079.079,0,0,0,0,.1L17.827,36.111a.069.069,0,0,0,.1,0L36.113,17.9l0-.15-1.438-14a.636.636,0,0,0-.438-.438L20.176,1.885l-.051-.012Zm25.031-5.355a4.757,4.757,0,1,1,4.347-1.292h0A4.749,4.749,0,0,1,27.9,14.844,4.8,4.8,0,0,1,26.922,14.742ZM25.86,8.048A2.884,2.884,0,1,0,28.5,7.263a2.839,2.839,0,0,0-.588-.061H27.9A2.866,2.866,0,0,0,25.86,8.048Z" transform="translate(0 666.234)"/>
  </g>
</svg>
