<svg xmlns="http://www.w3.org/2000/svg" viewBox="16896.998 1957 18.004 32">
  <defs>
  </defs>
  <path  fill="#fff"  id="Union_10" data-name="Union 10" class="cls-1" d="M-16586-1669.1v-2.924a11.182,11.182,0,0,1-8-3.914l1.416-1.695a10.093,10.093,0,0,0,6.584,3.519v-10.536c-3.678-.991-7.246-2.272-7.246-6.556,0-3.763,3.172-6.226,7.246-6.558v-3.337h2v3.334a10.65,10.65,0,0,1,7.434,3.45l-1.416,1.6a8.605,8.605,0,0,0-6.018-3.057v9.411c3.914,1.107,8,2.515,8,7.31,0,3.065-1.982,6.727-8,7.045v2.9Zm2-4.98c4.4-.3,5.734-2.927,5.734-4.969,0-3.111-2.627-4.271-5.734-5.089Zm-6.988-17.125c0,2.475,2.236,3.462,4.984,4.279v-8.853C-16588.871-1695.476-16590.986-1693.69-16590.986-1691.2Z" transform="translate(33491 3658.096)"/>
</svg>
