<svg xmlns="http://www.w3.org/2000/svg" viewBox="17434 1955 50.303 36.024">
  <defs>
  </defs>
  <g  fill="#fff"  id="Group_9676" data-name="Group 9676" transform="translate(16476 1698)">
    <g id="Group_9630" data-name="Group 9630" transform="translate(340.203)">
      <path id="Path_9435" data-name="Path 9435" class="cls-1" d="M38.63,39.647c-.331.123-.662.227-1,.331a18.514,18.514,0,0,1-4.56.785h-.208a12.592,12.592,0,0,1-1.561-.1,12.44,12.44,0,0,1-2.516-.577c-.369-.123-.728-.265-1.088-.426h0c-3.2,2.5-5.922,4.465-7.1,10.68q-.142.747-.246,1.58a48.614,48.614,0,0,0-.359,6.31H46.349a50.489,50.489,0,0,0-.341-6.31q-.1-.832-.246-1.58C44.618,44.065,41.922,42.211,38.63,39.647Zm5.4,12.3a41.008,41.008,0,0,1,.331,4.427h-22.4a41.179,41.179,0,0,1,.331-4.427c.076-.558.161-1.088.265-1.58.946-4.626,2.838-6.423,5.477-8.457a16.8,16.8,0,0,0,4.2.8h1.022a4.734,4.734,0,0,0,.946-.066c.615-.057,1.239-.132,1.892-.236a20.123,20.123,0,0,0,2.289-.549h0c2.554,2.043,4.531,3.784,5.477,8.457.019.5.114,1.031.189,1.589Z" transform="translate(597.805 234.797)"/>
      <g id="Group_9562" data-name="Group 9562" transform="translate(623.347 257.795)">
        <path id="Subtraction_23" data-name="Subtraction 23" class="cls-1" d="M7.679,15.3A7.553,7.553,0,0,1,.143,8.947,7.483,7.483,0,0,1,0,7.51,7.754,7.754,0,0,1,7.673,0,7.657,7.657,0,0,1,15.3,7.51a7.471,7.471,0,0,1-.086,1.436A7.552,7.552,0,0,1,7.679,15.3ZM7.653,1.913a5.739,5.739,0,1,0,5.738,5.738A5.745,5.745,0,0,0,7.653,1.913Z" transform="translate(0 0)"/>
      </g>
    </g>
    <g id="Group_9673" data-name="Group 9673">
      <path id="Path_9418" data-name="Path 9418" class="cls-1" d="M23.506,11.652a3.006,3.006,0,0,0-2.714-2.928A8.511,8.511,0,0,0,20.221,7.3a2.863,2.863,0,0,0-.428-4.07,3,3,0,0,0-3.713,0,11.906,11.906,0,0,0-1.428-.571A2.994,2.994,0,0,0,11.438.012,3.032,3.032,0,0,0,8.8,2.654a12.874,12.874,0,0,0-1.5.571,2.853,2.853,0,0,0-4.07.286,2.92,2.92,0,0,0,0,3.785,11.906,11.906,0,0,0-.571,1.428,2.949,2.949,0,0,0-2.3,1.549,2.87,2.87,0,0,0-.338,1.665,2.687,2.687,0,0,0,.7,1.654,3.228,3.228,0,0,0,1.941.988,8.511,8.511,0,0,0,.571,1.428,2.849,2.849,0,0,0,.286,4.07,2.92,2.92,0,0,0,3.785,0,11.9,11.9,0,0,0,1.428.571,2.952,2.952,0,0,0,3.213,2.642,3.032,3.032,0,0,0,2.642-2.642,8.511,8.511,0,0,0,1.428-.571,2.849,2.849,0,0,0,4.07-.286,2.92,2.92,0,0,0,0-3.785,11.9,11.9,0,0,0,.571-1.428,2.925,2.925,0,0,0,2.856-2.928Zm-3.856,1.5a7.817,7.817,0,0,1-1.285,3.071l.643.643a1.465,1.465,0,0,1-2,2.142l-.071-.071-.571-.643a8.131,8.131,0,0,1-3.142,1.285v.857a1.5,1.5,0,0,1-3,0h0v-.857a7.817,7.817,0,0,1-3.071-1.285l-.643.643a1.465,1.465,0,1,1-2.142-2l.643-.643a8.285,8.285,0,0,1-1.285-3.071H2.869a1.5,1.5,0,1,1,0-3h.857A7.817,7.817,0,0,1,5.011,7.153L4.44,6.51a1.407,1.407,0,0,1,.071-2.071,1.381,1.381,0,0,1,2,0l.643.643A8.285,8.285,0,0,1,10.224,3.8V2.868a1.5,1.5,0,0,1,3,0h0v.857a8.285,8.285,0,0,1,3.071,1.285l.643-.643a1.465,1.465,0,1,1,2.142,2l-.071.071-.643.643a8.285,8.285,0,0,1,1.285,3.071h.857a1.5,1.5,0,1,1,0,3Z" transform="translate(1008.303 257) rotate(90)"/>
      <path id="Subtraction_25" data-name="Subtraction 25" class="cls-1" d="M-16521.328-1524.648a4.681,4.681,0,0,1-4.674-4.677,4.68,4.68,0,0,1,4.674-4.674,4.679,4.679,0,0,1,4.676,4.674A4.68,4.68,0,0,1-16521.328-1524.648Zm0-7.844a3.164,3.164,0,0,0-3.16,3.162,3.162,3.162,0,0,0,3.16,3.159,3.166,3.166,0,0,0,3.162-3.159A3.168,3.168,0,0,0-16521.332-1532.493Z" transform="translate(17518 1797.999)"/>
    </g>
  </g>
</svg>
