<svg xmlns="http://www.w3.org/2000/svg" viewBox="17212 1954 48.004 36.4">
  <defs>
  </defs>
  <g  fill="#fff" id="Group_9631_1_" transform="translate(33701.004 3652)">
    <g id="Path_2121_1_">
      <path id="Path_9485" data-name="Path 9485" class="cls-1" d="M-16443-1698a2.006,2.006,0,0,0-2,2h0a.752.752,0,0,0,.1.5l-11.8,10.2a2.923,2.923,0,0,0-.9-.2,1.818,1.818,0,0,0-1.4.6l-11.3-4.8h0a2.006,2.006,0,0,0-2-2h0a2.074,2.074,0,0,0-2,2,1.273,1.273,0,0,0,.1.6l-11.9,10a2.923,2.923,0,0,0-.9-.2,2.006,2.006,0,0,0-2,2h0a2.074,2.074,0,0,0,2,2,2.074,2.074,0,0,0,2-2,1.273,1.273,0,0,0-.1-.6l11.8-10.1a2.923,2.923,0,0,0,.9.2,1.818,1.818,0,0,0,1.4-.6l11.3,4.8h0a2.006,2.006,0,0,0,2,2h0a2.074,2.074,0,0,0,2-2,1.273,1.273,0,0,0-.1-.6l11.8-10.1a1.93,1.93,0,0,0,1,.3,2.006,2.006,0,0,0,2-2h0A2.006,2.006,0,0,0-16443-1698Z"/>
    </g>
    <g id="Path_9419_1_">
      <path id="Path_9486" data-name="Path 9486" class="cls-1" d="M-16460-1661.6h-8.2v-19.8l8.2,3.4Zm-6.6-1.7h4.9V-1677l-4.9-2Z"/>
    </g>
    <g id="Path_9420_1_">
      <path id="Path_9487" data-name="Path 9487" class="cls-1" d="M-16474.4-1661.7h-8.2V-1674l8.2-7.1Zm-6.6-1.7h4.9v-14.1l-4.9,4.2Z"/>
    </g>
    <g id="Path_9421_1_">
      <path id="Path_9488" data-name="Path 9488" class="cls-1" d="M-16445.6-1661.6h-8.2v-17.6l8.2-6.8Zm-6.6-1.6h4.9v-19.3l-4.9,4.1Z"/>
    </g>
  </g>
</svg>
