<svg xmlns="http://www.w3.org/2000/svg" viewBox="16665.996 1956 39 35.901">
  <defs>
  </defs>
  <g  fill="#fff"  id="Group_9568_1_" transform="translate(33144.697 3646.6)">
    <g id="Group_9567_1_" transform="translate(195.61 280.402)">
      <g id="Group_9566_1_" transform="translate(-2.416 0.999)">
        <g id="Path_9444_1_">
          <path id="Path_9489" data-name="Path 9489" class="cls-1" d="M-16643-1936.1a12.388,12.388,0,0,1-2.7-.3l.5-1.9a10.469,10.469,0,0,0,3.5.2l.3,2Zm-6.6-2a11.872,11.872,0,0,1-3-2.9l1.6-1.2a9.429,9.429,0,0,0,2.5,2.4Zm-5-6.6q-.3-1.05-.6-2.1c-.1-.6-.3-1.2-.4-1.7l1.9-.6a13.374,13.374,0,0,1,.5,1.9,12.142,12.142,0,0,0,.5,1.8Zm-2.6-6.8a8.41,8.41,0,0,0-2.7-2.2l.9-1.8a10.869,10.869,0,0,1,3.3,2.7Zm-6.1-3.3a21.12,21.12,0,0,0-2.6-.2h-.1v-2h.2a26.437,26.437,0,0,1,2.9.2Z"/>
        </g>
      </g>
    </g>
    <g id="Path_9441_1_">
      <path id="Path_9490" data-name="Path 9490" class="cls-1" d="M-16448.5-1676.2a6.874,6.874,0,0,1,6.8,6.8c0,2.1-2.7,6.4-6.8,10.9-4.1-4.5-6.8-8.7-6.8-10.9a6.808,6.808,0,0,1,6.8-6.8m0,11.3h0a5,5,0,0,0,5-4.9v-.1a4.994,4.994,0,0,0-4.9-5h-.1a5,5,0,0,0-5,4.9v.1a5.014,5.014,0,0,0,5,5m0-13.3a8.792,8.792,0,0,0-8.8,8.7v.1c0,4.5,7.1,11.9,7.8,12.8l1,1,1-1c.8-.8,7.8-8.2,7.8-12.8a8.792,8.792,0,0,0-8.7-8.8Zm0,11.3a2.99,2.99,0,0,1-3-2.9v-.1a2.99,2.99,0,0,1,2.9-3h.1a2.99,2.99,0,0,1,3,2.9v.1A3.009,3.009,0,0,1-16448.5-1666.9Z"/>
    </g>
    <g id="Path_9441_2_2_1_">
      <path id="Path_9491" data-name="Path 9491" class="cls-1" d="M-16472.5-1689.1a4.868,4.868,0,0,1,4.8,4.8c0,1.5-1.9,4.5-4.8,7.7-2.9-3.2-4.8-6.1-4.8-7.7a4.8,4.8,0,0,1,4.8-4.8m0,7.9h0a3.478,3.478,0,0,0,3.5-3.5v-.1a3.478,3.478,0,0,0-3.5-3.5h-.1a3.478,3.478,0,0,0-3.5,3.5v.1a3.7,3.7,0,0,0,3.6,3.5m0-9.4a6.145,6.145,0,0,0-6.2,6.1v.1c0,3.2,5,8.4,5.5,9l.7.7.7-.7c.6-.6,5.5-5.8,5.5-9a6.23,6.23,0,0,0-6.2-6.2Zm0,8a2.094,2.094,0,0,1-2.1-2v-.1a2.094,2.094,0,0,1,2-2.1h.1a2.094,2.094,0,0,1,2.1,2v.1A2.051,2.051,0,0,1-16472.5-1682.6Z"/>
    </g>
  </g>
</svg>
