<svg xmlns="http://www.w3.org/2000/svg" viewBox="0 0 32 32">
    <title>Scheduling</title>
    <g id="Scheduling">
        <g id="clock">
            <circle cx="22" cy="22" r="9" fill="none" stroke="#fff" stroke-miterlimit="10" stroke-width="2"/>
            <polyline points="22 17 22 22 20 24" fill="none" stroke="#fff" stroke-linecap="round" stroke-linejoin="round" stroke-width="2"/>
        </g>
        <g id="calendar">
            <rect x="1" y="1" width="24" height="6" stroke-width="2" stroke="#fff" stroke-linecap="round" stroke-linejoin="round" fill="none"/>
            <polyline points="14 27 1 27 1 7 25 7 25 13.5" fill="none" stroke="#fff" stroke-linecap="round" stroke-linejoin="round" stroke-width="2"/>
            <line x1="9" y1="23" x2="9" y2="23" fill="none" stroke="#fff" stroke-linecap="round" stroke-linejoin="round" stroke-width="2"/>
            <line x1="5" y1="23" x2="5" y2="23" fill="none" stroke="#fff" stroke-linecap="round" stroke-linejoin="round" stroke-width="2"/>
            <line x1="13" y1="19" x2="13" y2="19" fill="none" stroke="#fff" stroke-linecap="round" stroke-linejoin="round" stroke-width="2"/>
            <line x1="9" y1="19" x2="9" y2="19" fill="none" stroke="#fff" stroke-linecap="round" stroke-linejoin="round" stroke-width="2"/>
            <line x1="5" y1="19" x2="5" y2="19" fill="none" stroke="#fff" stroke-linecap="round" stroke-linejoin="round" stroke-width="2"/>
            <line x1="13" y1="15" x2="13" y2="15" fill="none" stroke="#fff" stroke-linecap="round" stroke-linejoin="round" stroke-width="2"/>
            <line x1="9" y1="15" x2="9" y2="15" fill="none" stroke="#fff" stroke-linecap="round" stroke-linejoin="round" stroke-width="2"/>
            <line x1="5" y1="15" x2="5" y2="15" fill="none" stroke="#fff" stroke-linecap="round" stroke-linejoin="round" stroke-width="2"/>
            <line x1="21" y1="11" x2="21" y2="11" fill="none" stroke="#fff" stroke-linecap="round" stroke-linejoin="round" stroke-width="2"/>
            <line x1="17" y1="11" x2="17" y2="11" fill="none" stroke="#fff" stroke-linecap="round" stroke-linejoin="round" stroke-width="2"/>
            <line x1="13" y1="11" x2="13" y2="11" fill="none" stroke="#fff" stroke-linecap="round" stroke-linejoin="round" stroke-width="2"/>
            <line x1="9" y1="11" x2="9" y2="11" fill="none" stroke="#fff" stroke-linecap="round" stroke-linejoin="round" stroke-width="2"/>
            <line x1="8" y1="4" x2="18" y2="4" fill="none" stroke="#fff" stroke-linecap="round" stroke-linejoin="round" stroke-width="2"/>
        </g>
    </g>
</svg>

