<svg xmlns="http://www.w3.org/2000/svg" viewBox="12055.092 197 34.926 35">
  <defs>
  </defs>
  <path  fill="#fff"  id="Path_10052" data-name="Path 10052" class="cls-1" d="M33.955,16.418H31.791A14.238,14.238,0,0,0,18.657,3.358V1.119a1.119,1.119,0,1,0-2.239,0V3.284A14.238,14.238,0,0,0,3.358,16.418H1.119a1.119,1.119,0,1,0,0,2.239H3.284a14.229,14.229,0,0,0,13.06,13.06v2.164a1.119,1.119,0,1,0,2.239,0V31.716a14.229,14.229,0,0,0,13.06-13.06h2.164a1.148,1.148,0,0,0,1.119-1.119A1.026,1.026,0,0,0,33.955,16.418Zm-4.478,2.09a11.858,11.858,0,0,1-10.97,10.97c-.3,0-.672.075-.97.075a4.59,4.59,0,0,1-.97-.075A11.858,11.858,0,0,1,5.6,18.507c0-.3-.075-.672-.075-.97a4.59,4.59,0,0,1,.075-.97A11.858,11.858,0,0,1,16.567,5.6c.3,0,.672-.075.97-.075a4.59,4.59,0,0,1,.97.075,11.858,11.858,0,0,1,10.97,10.97c0,.3.075.672.075.97S29.478,18.134,29.478,18.507Z" transform="translate(12055.092 197)"/>
</svg>
