<svg xmlns="http://www.w3.org/2000/svg" viewBox="17324 1955 44 36.024">
  <defs>
  </defs>
  <path fill="#fff" id="ICON" class="cls-1" d="M-7352.2,20.024a48.338,48.338,0,0,1,.36-6.31q.1-.832.246-1.58c1.173-6.215,3.9-8.183,7.095-10.68.36.161.719.3,1.088.426a12.4,12.4,0,0,0,2.516.576,12.462,12.462,0,0,0,1.561.1h.208a18.49,18.49,0,0,0,4.559-.785c.341-.1.673-.209,1-.332,3.292,2.564,5.988,4.419,7.134,10.69.093.5.176,1.025.246,1.58a50.551,50.551,0,0,1,.341,6.31Zm2.564-7.861c-.1.493-.189,1.021-.265,1.58a41.355,41.355,0,0,0-.331,4.428h22.4a40.856,40.856,0,0,0-.331-4.428l.02-.037c-.076-.558-.171-1.088-.189-1.59-.947-4.672-2.925-6.412-5.478-8.457a19.99,19.99,0,0,1-2.29.55c-.652.1-1.277.178-1.891.237a4.812,4.812,0,0,1-.947.065h-1.021a16.821,16.821,0,0,1-4.2-.8C-7346.8,5.739-7348.693,7.536-7349.639,12.162ZM-7361,13.7c0-10.784,2.838-12.828,6.49-15.657a10.5,10.5,0,0,0,4.4.947h.143a14.7,14.7,0,0,0,3.859-.663,9.235,9.235,0,0,0,1.3,1.249l-.748.35a17,17,0,0,1-4.259.719h-.141a14.172,14.172,0,0,1-4.257-.719c-3,2.308-4.891,4.257-5.127,12.194h6.045c-.076.415-.142.889-.208,1.362V13.7Zm36.46-.009v-.219c-.067-.472-.133-.945-.209-1.362h6.073c-.217-7.927-2.166-9.876-5.119-12.183a14.165,14.165,0,0,1-4.256.719h-.141a16.978,16.978,0,0,1-4.257-.719l-.786-.35a9.235,9.235,0,0,0,1.3-1.249,14.683,14.683,0,0,0,3.859.663h.189a10.5,10.5,0,0,0,4.4-.947c3.6,2.84,6.49,4.834,6.49,15.648Zm-21.969-19.953a7.537,7.537,0,0,1-.144-1.437,7.758,7.758,0,0,1,7.675-7.511,7.656,7.656,0,0,1,7.624,7.511,7.485,7.485,0,0,1-.085,1.437A7.552,7.552,0,0,1-7338.973.1,7.553,7.553,0,0,1-7346.509-6.257Zm1.771-1.3A5.745,5.745,0,0,0-7339-1.815a5.745,5.745,0,0,0,5.739-5.737A5.746,5.746,0,0,0-7339-13.291,5.745,5.745,0,0,0-7344.739-7.552Zm14.1,3.85.074-.141a9.278,9.278,0,0,0,.474-1.334,4.731,4.731,0,0,0,4.516-.306,4.73,4.73,0,0,0,2.191-3.962v-.133a4.733,4.733,0,0,0-2.928-4.4,4.733,4.733,0,0,0-5.179,1.062,9.336,9.336,0,0,0-.947-1.154l-.178-.141A6.37,6.37,0,0,1-7328.145-16a6.528,6.528,0,0,1,6.414,6.414,6.414,6.414,0,0,1-6.414,6.414A6.316,6.316,0,0,1-7330.642-3.7Zm-25.629-5.884A6.53,6.53,0,0,1-7349.894-16a6.382,6.382,0,0,1,4.438,1.8l-.144.133a9.365,9.365,0,0,0-.945,1.154,4.733,4.733,0,0,0-5.179-1.062,4.73,4.73,0,0,0-2.928,4.4v.133a4.73,4.73,0,0,0,2.191,3.962,4.731,4.731,0,0,0,4.517.306,9.115,9.115,0,0,0,.463,1.334l.076.141a6.334,6.334,0,0,1-2.451.53A6.414,6.414,0,0,1-7356.271-9.586Z" transform="translate(24685 1971)"/>
</svg>
